# This file uses centimeters as units for non-parametric coordinates.

mtllib facial_mask.mtl
g default
v 34.532703 2.300643 19.973601
v 34.429679 2.300643 19.771490
v 34.269216 2.300643 19.611094
v 34.067020 2.300643 19.508113
v 33.842884 2.300643 19.472628
v 34.568202 2.300643 20.197642
v 34.632122 2.422840 19.941311
v 34.514250 2.422840 19.710071
v 34.330660 2.422840 19.526558
v 34.099323 2.422840 19.408736
v 33.842884 2.422840 19.368137
v 34.672737 2.422840 20.197642
v 34.712107 2.559860 19.915333
v 34.582289 2.559860 19.660659
v 34.380093 2.559860 19.458548
v 34.125312 2.559860 19.328785
v 33.842884 2.559860 19.284071
v 34.712106 2.559860 20.479951
v 34.770689 2.708327 19.896307
v 34.632122 2.708327 19.624468
v 34.416299 2.708327 19.408736
v 34.144346 2.708327 19.270227
v 33.842884 2.708327 19.222500
v 34.632121 2.708327 20.770816
v 34.806425 2.864588 19.884700
v 34.662521 2.864588 19.602391
v 34.438385 2.864588 19.378350
v 34.155958 2.864588 19.234506
v 33.842884 2.864588 19.184941
v 33.842884 2.864588 21.210344
v 34.155957 2.864588 21.160779
v 34.438385 2.864588 21.016935
v 34.662520 2.864588 20.792893
v 34.806424 2.864588 20.510584
v 34.856010 2.864588 20.197642
v 34.672738 3.024793 19.594971
v 34.445808 3.024793 19.368137
v 34.159860 3.024793 19.222500
v 33.842884 3.024793 19.172317
v 34.810844 2.923532 19.883265
v 34.859886 2.913760 20.197642
v 34.810108 2.913724 20.511781
v 34.665308 2.908304 20.794918
v 34.440665 2.913790 21.020071
v 34.157493 2.927613 21.165502
v 34.557413 2.331014 19.965575
v 34.156912 2.903779 21.163716
v 34.648867 2.422840 20.348291
v 34.666537 2.481796 20.465151
v 34.640742 2.559860 20.619952
v 34.604395 2.625722 20.750681
v 34.488145 2.708327 20.914732
v 34.420600 2.738757 20.992466
v 34.151059 2.798665 21.145709
v 33.842884 2.838123 21.203983
v 33.985673 2.864588 21.187738
v 33.842884 2.925072 21.215110
v 33.153065 2.299535 19.973601
v 33.256089 2.299535 19.771490
v 33.416553 2.299535 19.611094
v 33.618749 2.299535 19.508113
v 33.842884 2.299535 19.472628
v 33.117566 2.299535 20.197642
v 33.053647 2.421733 19.941311
v 33.171519 2.421733 19.710071
v 33.355109 2.421733 19.526558
v 33.586445 2.421733 19.408736
v 33.842884 2.421733 19.368137
v 33.013031 2.421733 20.197642
v 32.973662 2.558752 19.915333
v 33.103479 2.558752 19.660659
v 33.305675 2.558752 19.458548
v 33.560457 2.558752 19.328785
v 33.842884 2.558752 19.284071
v 32.973662 2.558752 20.479951
v 32.915080 2.707220 19.896307
v 33.053647 2.707220 19.624468
v 33.269470 2.707220 19.408736
v 33.541422 2.707220 19.270227
v 33.842884 2.707220 19.222500
v 33.053647 2.707220 20.770816
v 32.879344 2.863480 19.884700
v 33.023248 2.863480 19.602391
v 33.247383 2.863480 19.378350
v 33.529811 2.863480 19.234506
v 33.842884 2.863480 19.184941
v 33.842884 2.863480 21.210344
v 33.529811 2.863480 21.160779
v 33.247384 2.863480 21.016935
v 33.023248 2.863480 20.792893
v 32.879344 2.863480 20.510584
v 32.829758 2.863480 20.197642
v 33.013031 3.023685 19.594971
v 33.239960 3.023685 19.368137
v 33.525908 3.023685 19.222500
v 33.842884 3.023685 19.172317
v 32.874924 2.922425 19.883265
v 32.825882 2.912653 20.197642
v 32.875660 2.912616 20.511781
v 33.020460 2.907197 20.794918
v 33.245104 2.912683 21.020071
v 33.528276 2.926506 21.165502
v 33.128355 2.329907 19.965575
v 33.528856 2.902672 21.163716
v 33.036902 2.421733 20.348291
v 33.019232 2.480688 20.465151
v 33.045026 2.558752 20.619952
v 33.081373 2.624615 20.750681
v 33.197623 2.707220 20.914732
v 33.265169 2.737649 20.992466
v 33.534710 2.797558 21.145709
v 33.842884 2.837016 21.203983
v 33.700096 2.863480 21.187738
v 33.842884 2.923964 21.215110
vt 0.000000 0.250000
vt 0.050000 0.250000
vt 0.100000 0.250000
vt 0.150000 0.250000
vt 0.200000 0.250000
vt 0.950000 0.250000
vt 1.000000 0.250000
vt 0.000000 0.300000
vt 0.050000 0.300000
vt 0.100000 0.300000
vt 0.150000 0.300000
vt 0.200000 0.300000
vt 0.950000 0.300000
vt 0.000000 0.350000
vt 0.050000 0.350000
vt 0.100000 0.350000
vt 0.150000 0.350000
vt 0.200000 0.350000
vt 0.900000 0.350000
vt 0.000000 0.400000
vt 0.050000 0.400000
vt 0.100000 0.400000
vt 0.150000 0.400000
vt 0.200000 0.400000
vt 0.850000 0.400000
vt 0.000000 0.450000
vt 0.050000 0.450000
vt 0.100000 0.450000
vt 0.150000 0.450000
vt 0.200000 0.450000
vt 0.700000 0.450000
vt 0.750000 0.450000
vt 0.800000 0.450000
vt 0.850000 0.450000
vt 0.900000 0.450000
vt 0.950000 0.450000
vt 1.000000 0.450000
vt 0.050000 0.500000
vt 0.100000 0.500000
vt 0.150000 0.500000
vt 0.200000 0.500000
vt 1.000000 0.468397
vt 0.000000 0.468397
vt 0.950000 0.465347
vt 0.900000 0.465335
vt 0.850000 0.463644
vt 0.800000 0.465356
vt 0.750000 0.469670
vt 1.000000 0.262427
vt 0.000000 0.262427
vt 0.750000 0.462232
vt 0.920615 0.300000
vt 0.900000 0.321514
vt 0.872514 0.350000
vt 0.850000 0.372181
vt 0.816645 0.400000
vt 0.800000 0.409737
vt 0.750000 0.428906
vt 0.700000 0.441532
vt 0.722804 0.450000
vt 0.700000 0.468877
vn 0.713025 -0.649739 -0.263505
vn 0.614711 -0.649999 -0.446801
vn 0.658386 -0.580965 -0.478546
vn 0.728152 -0.576220 -0.371168
vn 0.704332 -0.649021 -0.287554
vn 0.446580 -0.649950 -0.614923
vn 0.478305 -0.580915 -0.658606
vn 0.234767 -0.649911 -0.722842
vn 0.251442 -0.580875 -0.774184
vn 0.119463 -0.645241 -0.754580
vn 0.127814 -0.576095 -0.807328
vn 0.828827 -0.543874 0.131328
vn 0.757935 -0.648382 -0.071670
vn 0.777799 -0.628426 0.010518
vn 0.722973 -0.448519 -0.525491
vn 0.798247 -0.444112 -0.406898
vn 0.525216 -0.448473 -0.723202
vn 0.276099 -0.448435 -0.850103
vn 0.140112 -0.443997 -0.885006
vn 0.770307 -0.305194 -0.559896
vn 0.849387 -0.301797 -0.432966
vn 0.559595 -0.305158 -0.770540
vn 0.294168 -0.305129 -0.905738
vn 0.149084 -0.301709 -0.941672
vn 0.789953 -0.161185 -0.591603
vn 0.903359 -0.152987 -0.400670
vn 0.580573 -0.154450 -0.799425
vn 0.305194 -0.154434 -0.939684
vn 0.154540 -0.152573 -0.976135
vn 0.778396 -0.078488 -0.622848
vn 0.925230 -0.078404 -0.371218
vn 0.585807 -0.078564 -0.806633
vn 0.307945 -0.078555 -0.948156
vn 0.155899 -0.077592 -0.984721
vn 0.155617 -0.098039 0.982940
vn 0.154446 -0.156406 0.975543
vn 0.390324 -0.078254 0.917346
vn 0.155899 -0.077592 0.984721
vn 0.358607 -0.205154 0.910666
vn 0.558844 -0.177573 0.810038
vn 0.806366 -0.078573 0.586175
vn 0.806359 -0.078573 0.586183
vn 0.598497 -0.078554 0.797264
vn 0.949464 -0.078581 0.303880
vn 0.949731 -0.078581 0.303044
vn 0.996879 -0.078584 -0.007518
vn 0.996866 -0.078582 -0.009067
vn 0.452471 -0.077598 0.888397
vn 0.834527 -0.521086 0.178982
vn 0.824634 -0.488895 0.284537
vn 0.820423 -0.389889 0.418202
vn 0.792728 -0.381891 0.475122
vn 0.745451 -0.346144 0.569637
vn 0.686394 -0.239437 0.686682
vn 0.571359 -0.233741 0.786711
vn 0.370597 -0.233068 0.899076
vn 0.152142 -0.230988 0.960988
vn -0.713025 -0.649739 -0.263505
vn -0.704332 -0.649021 -0.287554
vn -0.728152 -0.576220 -0.371168
vn -0.658386 -0.580965 -0.478546
vn -0.614711 -0.649999 -0.446801
vn -0.478305 -0.580915 -0.658606
vn -0.446580 -0.649950 -0.614923
vn -0.251442 -0.580875 -0.774184
vn -0.234767 -0.649911 -0.722842
vn -0.127814 -0.576095 -0.807328
vn -0.119463 -0.645242 -0.754580
vn -0.828826 -0.543875 0.131328
vn -0.777798 -0.628426 0.010518
vn -0.757935 -0.648382 -0.071670
vn -0.798247 -0.444112 -0.406898
vn -0.722973 -0.448519 -0.525491
vn -0.525216 -0.448473 -0.723202
vn -0.276099 -0.448435 -0.850103
vn -0.140112 -0.443997 -0.885006
vn -0.849387 -0.301797 -0.432966
vn -0.770307 -0.305194 -0.559896
vn -0.559595 -0.305159 -0.770540
vn -0.294168 -0.305130 -0.905738
vn -0.149084 -0.301709 -0.941672
vn -0.903359 -0.152987 -0.400670
vn -0.789953 -0.161185 -0.591603
vn -0.580572 -0.154450 -0.799425
vn -0.305194 -0.154434 -0.939684
vn -0.154540 -0.152573 -0.976135
vn -0.925230 -0.078404 -0.371218
vn -0.778396 -0.078488 -0.622848
vn -0.585807 -0.078564 -0.806633
vn -0.307945 -0.078555 -0.948156
vn -0.155899 -0.077592 -0.984721
vn -0.155617 -0.098039 0.982940
vn -0.155899 -0.077592 0.984721
vn -0.390324 -0.078253 0.917346
vn -0.154446 -0.156406 0.975543
vn -0.358607 -0.205154 0.910666
vn -0.558844 -0.177573 0.810038
vn -0.598497 -0.078554 0.797265
vn -0.806359 -0.078573 0.586183
vn -0.806366 -0.078573 0.586175
vn -0.949731 -0.078580 0.303044
vn -0.949464 -0.078581 0.303880
vn -0.996866 -0.078582 -0.009067
vn -0.996879 -0.078583 -0.007518
vn -0.452471 -0.077598 0.888397
vn -0.834526 -0.521087 0.178982
vn -0.824634 -0.488895 0.284537
vn -0.820423 -0.389889 0.418202
vn -0.792728 -0.381891 0.475122
vn -0.745452 -0.346144 0.569637
vn -0.686395 -0.239437 0.686682
vn -0.571359 -0.233741 0.786711
vn -0.370597 -0.233068 0.899076
vn -0.152142 -0.230988 0.960988
s 1
g pSphere14
usemtl lambert6SG
f 1/1/1 2/2/2 8/9/3 7/8/4 46/50/5
f 2/2/2 3/3/6 9/10/7 8/9/3
f 3/3/6 4/4/8 10/11/9 9/10/7
f 4/4/8 5/5/10 11/12/11 10/11/9
f 48/52/12 6/6/13 12/13/14
f 6/6/13 1/7/1 46/49/5 12/13/14
f 7/8/4 8/9/3 14/15/15 13/14/16
f 8/9/3 9/10/7 15/16/17 14/15/15
f 9/10/7 10/11/9 16/17/18 15/16/17
f 10/11/9 11/12/11 17/18/19 16/17/18
f 13/14/16 14/15/15 20/21/20 19/20/21
f 14/15/15 15/16/17 21/22/22 20/21/20
f 15/16/17 16/17/18 22/23/23 21/22/22
f 16/17/18 17/18/19 23/24/24 22/23/23
f 19/20/21 20/21/20 26/27/25 25/26/26
f 20/21/20 21/22/22 27/28/27 26/27/25
f 21/22/22 22/23/23 28/29/28 27/28/27
f 22/23/23 23/24/24 29/30/29 28/29/28
f 25/26/26 26/27/25 36/38/30 40/43/31
f 26/27/25 27/28/27 37/39/32 36/38/30
f 27/28/27 28/29/28 38/40/33 37/39/32
f 28/29/28 29/30/29 39/41/34 38/40/33
f 30/31/35 56/60/36 47/51/37 57/61/38
f 31/32/39 32/33/40 47/51/37
f 32/33/40 33/34/41 43/46/42 44/47/43
f 33/34/41 34/35/44 42/45/45 43/46/42
f 34/35/44 35/36/46 41/44/47 42/45/45
f 35/36/46 25/37/26 40/42/31 41/44/47
f 47/51/37 32/33/40 44/47/43 45/48/48
f 49/53/49 48/52/12 12/13/14 18/19/50
f 50/54/51 49/53/49 18/19/50
f 51/55/52 50/54/51 18/19/50 24/25/53
f 52/56/54 51/55/52 24/25/53
f 53/57/55 52/56/54 24/25/53 32/33/40
f 54/58/56 53/57/55 32/33/40 31/32/39
f 55/59/57 56/60/36 30/31/35
f 55/59/57 54/58/56 31/32/39 56/60/36
f 47/51/37 56/60/36 31/32/39
s 5
f 58//58 103//59 64//60 65//61 59//62
f 59//62 65//61 66//63 60//64
f 60//64 66//63 67//65 61//66
f 61//66 67//65 68//67 62//68
f 105//69 69//70 63//71
f 63//71 69//70 103//59 58//58
f 64//60 70//72 71//73 65//61
f 65//61 71//73 72//74 66//63
f 66//63 72//74 73//75 67//65
f 67//65 73//75 74//76 68//67
f 70//72 76//77 77//78 71//73
f 71//73 77//78 78//79 72//74
f 72//74 78//79 79//80 73//75
f 73//75 79//80 80//81 74//76
f 76//77 82//82 83//83 77//78
f 77//78 83//83 84//84 78//79
f 78//79 84//84 85//85 79//80
f 79//80 85//85 86//86 80//81
f 82//82 97//87 93//88 83//83
f 83//83 93//88 94//89 84//84
f 84//84 94//89 95//90 85//85
f 85//85 95//90 96//91 86//86
f 87//92 114//93 104//94 113//95
f 88//96 104//94 89//97
f 89//97 101//98 100//99 90//100
f 90//100 100//99 99//101 91//102
f 91//102 99//101 98//103 92//104
f 92//104 98//103 97//87 82//82
f 104//94 102//105 101//98 89//97
f 106//106 75//107 69//70 105//69
f 107//108 75//107 106//106
f 108//109 81//110 75//107 107//108
f 109//111 81//110 108//109
f 110//112 89//97 81//110 109//111
f 111//113 88//96 89//97 110//112
f 112//114 87//92 113//95
f 112//114 113//95 88//96 111//113
f 104//94 88//96 113//95
