# This file uses centimeters as units for non-parametric coordinates.

mtllib scrap_metal.mtl
g default
v 0.152940 0.076056 -0.460009
v 0.500000 0.076056 -0.460009
v 0.152940 0.118157 -0.460009
v 0.500000 0.118157 -0.460009
v 0.152940 0.118157 -1.038142
v 0.500000 0.118157 -1.038142
v 0.152940 0.076056 -1.038142
v 0.500000 0.076056 -1.038142
v 0.540298 0.076056 -1.038142
v 0.540298 0.076056 -0.460009
v 0.540298 0.118157 -1.038142
v 0.540298 0.118157 -0.460009
v 0.112643 0.076056 -1.038142
v 0.112643 0.076056 -0.460009
v 0.112643 0.118157 -0.460009
v 0.112643 0.118157 -1.038142
v 0.498959 0.141527 -0.461749
v 0.498959 0.141527 -1.040172
v 0.539172 0.141527 -0.461749
v 0.539172 0.141527 -1.040172
v 0.153982 0.141527 -0.461749
v 0.153982 0.141527 -1.040172
v 0.113768 0.141527 -1.040172
v 0.113768 0.141527 -0.461749
v 0.480381 0.180986 -0.462226
v 0.480381 0.180986 -1.039463
v 0.519098 0.180986 -0.462226
v 0.519098 0.180986 -1.039463
v 0.172559 0.180986 -0.462226
v 0.172559 0.180986 -1.039463
v 0.133842 0.180986 -1.039463
v 0.133842 0.180986 -0.462226
v 0.490590 0.213087 -0.466171
v 0.490590 0.213087 -1.040304
v 0.531874 0.213087 -0.466171
v 0.531874 0.213087 -1.040304
v 0.162351 0.213087 -0.461258
v 0.162351 0.213087 -1.040304
v 0.121066 0.213087 -1.040304
v 0.121066 0.213087 -0.461258
vt 0.375000 0.000000
vt 0.625000 0.000000
vt 0.375000 0.250000
vt 0.625000 0.250000
vt 0.375000 0.500000
vt 0.625000 0.500000
vt 0.375000 0.750000
vt 0.625000 0.750000
vt 0.375000 1.000000
vt 0.625000 1.000000
vt 0.875000 0.000000
vt 0.875000 0.250000
vt 0.125000 0.000000
vt 0.125000 0.250000
vt 0.625000 0.000000
vt 0.875000 0.000000
vt 0.875000 0.250000
vt 0.625000 0.250000
vt 0.125000 0.000000
vt 0.375000 0.000000
vt 0.375000 0.250000
vt 0.125000 0.250000
vt 0.875000 0.250000
vt 0.625000 0.250000
vt 0.625000 0.250000
vt 0.875000 0.250000
vt 0.375000 0.250000
vt 0.125000 0.250000
vt 0.125000 0.250000
vt 0.375000 0.250000
vt 0.875000 0.250000
vt 0.625000 0.250000
vt 0.625000 0.250000
vt 0.875000 0.250000
vt 0.375000 0.250000
vt 0.125000 0.250000
vt 0.125000 0.250000
vt 0.375000 0.250000
vt 0.875000 0.250000
vt 0.625000 0.250000
vt 0.625000 0.250000
vt 0.875000 0.250000
vt 0.375000 0.250000
vt 0.125000 0.250000
vt 0.125000 0.250000
vt 0.375000 0.250000
vn 0.000000 0.000000 1.000000
vn 0.000000 0.000000 1.000000
vn 0.000000 0.004082 0.999992
vn 0.000000 0.004082 0.999992
vn 0.000000 1.000000 0.000000
vn 0.000000 1.000000 0.000000
vn 0.000000 1.000000 0.000000
vn 0.000000 1.000000 0.000000
vn 0.000000 -0.004764 -0.999989
vn 0.000000 -0.004764 -0.999989
vn 0.000000 0.000000 -1.000000
vn 0.000000 0.000000 -1.000000
vn 0.000000 -1.000000 0.000000
vn 0.000000 -1.000000 0.000000
vn 0.000000 -1.000000 0.000000
vn 0.000000 -1.000000 0.000000
vn 1.000000 0.000000 0.000000
vn 1.000000 0.000000 0.000000
vn 0.999851 0.017240 0.000000
vn 0.999853 0.017147 0.000000
vn -1.000000 0.000000 0.000000
vn -1.000000 0.000000 0.000000
vn -0.999853 0.017147 0.000000
vn -0.999851 0.017240 0.000000
vn 0.000000 -1.000000 0.000000
vn 0.000000 -1.000000 0.000000
vn 0.000000 -0.030862 -0.999524
vn 0.000000 0.000000 -1.000000
vn 0.000000 1.000000 0.000000
vn 0.000000 1.000000 0.000000
vn 0.000000 1.000000 0.000000
vn 0.000000 1.000000 0.000000
vn 0.000000 0.000000 1.000000
vn 0.000000 0.026447 0.999650
vn 0.000000 -1.000000 0.000000
vn 0.000000 -1.000000 0.000000
vn 0.000000 0.026447 0.999650
vn 0.000000 0.000000 1.000000
vn 0.000000 1.000000 0.000000
vn 0.000000 1.000000 0.000000
vn 0.000000 1.000000 0.000000
vn 0.000000 1.000000 0.000000
vn 0.000000 0.000000 -1.000000
vn 0.000000 -0.030862 -0.999524
vn -0.999008 -0.044519 0.000000
vn -0.999008 -0.044519 0.000000
vn -0.954689 -0.297605 0.000000
vn -0.954470 -0.298308 0.000000
vn 0.000000 0.074245 0.997240
vn 0.000000 0.074245 0.997240
vn 0.947427 0.319972 0.000000
vn 0.947678 0.319229 0.000000
vn 0.000000 -0.086565 -0.996246
vn 0.000000 -0.086565 -0.996246
vn 0.999008 -0.044523 0.000000
vn 0.999008 -0.044523 0.000000
vn 0.954470 -0.298308 0.000000
vn 0.954689 -0.297605 0.000000
vn 0.000000 -0.086565 -0.996246
vn 0.000000 -0.086565 -0.996246
vn -0.947678 0.319229 0.000000
vn -0.947427 0.319972 0.000000
vn 0.000000 0.074245 0.997240
vn 0.000000 0.074245 0.997240
vn -0.992988 -0.118213 0.000000
vn -0.993157 -0.116785 0.000000
vn 0.000000 0.012073 0.999927
vn 0.000000 0.012073 0.999927
vn 0.000000 0.012073 0.999927
vn 0.000000 0.012073 0.999927
vn 0.994765 0.102186 0.000000
vn 0.994595 0.103833 0.000000
vn 0.000000 0.017971 -0.999839
vn 0.000000 0.017971 -0.999839
vn 0.000000 0.017971 -0.999838
vn 0.000000 0.017971 -0.999838
vn 0.993252 -0.115973 0.000000
vn 0.993264 -0.115875 0.000000
vn 0.000000 0.017971 -0.999839
vn 0.000000 0.017971 -0.999839
vn 0.000000 0.017971 -0.999839
vn 0.000000 0.017971 -0.999839
vn -0.994873 0.101137 0.000000
vn -0.994861 0.101250 0.000000
vn 0.000000 0.012073 0.999927
vn 0.000000 0.012073 0.999927
vn 0.000000 0.012073 0.999927
vn 0.000000 0.012073 0.999927
vn -0.952976 0.303047 0.000000
vn -0.952976 0.303047 0.000000
vn 0.000000 0.121986 0.992532
vn 0.000000 0.121986 0.992532
vn 0.000000 0.121986 0.992532
vn 0.000000 0.121986 0.992532
vn 0.929118 -0.369784 0.000000
vn 0.929118 -0.369784 0.000000
vn 0.000000 -0.026190 -0.999657
vn 0.000000 -0.026190 -0.999657
vn 0.000000 -0.026190 -0.999657
vn 0.000000 -0.026190 -0.999657
vn 0.952977 0.303042 0.000000
vn 0.952977 0.303042 0.000000
vn 0.000000 -0.026190 -0.999657
vn 0.000000 -0.026190 -0.999657
vn 0.000000 -0.026190 -0.999657
vn 0.000000 -0.026190 -0.999657
vn -0.929121 -0.369776 0.000000
vn -0.929121 -0.369776 0.000000
vn 0.000000 -0.030125 0.999546
vn 0.000000 -0.030125 0.999546
vn 0.000000 -0.030125 0.999546
vn 0.000000 -0.030125 0.999546
s 1
g pCube1
usemtl lambert2SG
f 1/1/1 2/2/2 4/4/3 3/3/4
s off
f 3/3/5 4/4/6 6/6/7 5/5/8
s 2
f 5/5/9 6/6/10 8/8/11 7/7/12
s 3
f 7/7/13 8/8/14 2/10/15 1/9/16
s 4
f 10/15/17 9/16/18 11/17/19 12/18/20
s 5
f 13/19/21 14/20/22 15/21/23 16/22/24
s 3
f 2/2/15 8/11/14 9/16/25 10/15/26
s 2
f 8/11/11 6/12/10 11/17/27 9/16/28
s off
f 34/39/29 33/40/30 35/41/31 36/42/32
s 1
f 4/4/3 2/2/2 10/15/33 12/18/34
s 3
f 7/13/13 1/1/16 14/20/35 13/19/36
s 1
f 1/1/1 3/3/4 15/21/37 14/20/38
s off
f 37/43/39 38/44/40 39/45/41 40/46/42
s 2
f 5/14/9 7/13/12 13/19/43 16/22/44
s 6
f 6/12/45 4/4/46 17/24/47 18/23/48
s 1
f 4/4/3 12/18/34 19/25/49 17/24/50
s 4
f 12/18/20 11/17/19 20/26/51 19/25/52
s 2
f 11/17/27 6/12/10 18/23/53 20/26/54
s 7
f 3/3/55 5/14/56 22/28/57 21/27/58
s 2
f 5/14/9 16/22/44 23/29/59 22/28/60
s 5
f 16/22/24 15/21/23 24/30/61 23/29/62
s 1
f 15/21/37 3/3/4 21/27/63 24/30/64
s 6
f 18/23/48 17/24/47 25/32/65 26/31/66
s off
f 17/24/67 19/25/68 27/33/69 25/32/70
s 4
f 19/25/52 20/26/51 28/34/71 27/33/72
s off
f 20/26/73 18/23/74 26/31/75 28/34/76
s 7
f 21/27/58 22/28/57 30/36/77 29/35/78
s off
f 22/28/79 23/29/80 31/37/81 30/36/82
s 5
f 23/29/62 24/30/61 32/38/83 31/37/84
s off
f 24/30/85 21/27/86 29/35/87 32/38/88
s 6
f 26/31/66 25/32/65 33/40/89 34/39/90
s off
f 25/32/91 27/33/92 35/41/93 33/40/94
s 4
f 27/33/72 28/34/71 36/42/95 35/41/96
s off
f 28/34/97 26/31/98 34/39/99 36/42/100
s 7
f 29/35/78 30/36/77 38/44/101 37/43/102
s off
f 30/36/103 31/37/104 39/45/105 38/44/106
s 5
f 31/37/84 32/38/83 40/46/107 39/45/108
s off
f 32/38/109 29/35/110 37/43/111 40/46/112
