# This file uses centimeters as units for non-parametric coordinates.

mtllib HexTile.mtl
g default
v 0.001641 0.000000 0.015247
v 0.354522 0.000000 -0.490975
v 0.355742 0.000000 -0.491727
v -0.352053 0.000000 0.505566
v 0.354522 0.000000 0.505566
v 0.722984 0.000000 0.007897
v 0.355742 0.000000 0.507521
v -0.714302 0.000000 0.007897
v -0.352053 0.000000 -0.490975
vt 0.527330 0.528509
vt 0.471928 0.117158
vt 0.000971 0.749181
vt 0.996426 0.999422
vt 0.999135 0.999828
vt 0.705048 0.044910
vt -0.002943 0.005466
vt -0.000787 0.998002
vt -0.000073 0.000590
vt 1.008526 0.006289
vt 0.000443 0.000027
vt 0.999627 1.000021
vt 1.001031 1.001697
vt 0.999207 1.000286
vt 0.008310 1.005920
vt 0.000299 0.999603
vt 0.993973 1.003820
vn 0.000000 -1.000000 0.000000
vn 0.000000 -1.000000 0.000000
vn 0.000000 -1.000000 0.000000
vn 0.000000 1.000000 0.000000
vn 0.000000 1.000000 0.000000
vn 0.000000 1.000000 0.000000
vn 0.000000 1.000000 0.000000
vn 0.000000 1.000000 0.000000
vn 0.000000 1.000000 0.000000
vn 0.000000 1.000000 0.000000
vn 0.000000 -1.000000 0.000000
vn 0.000000 -1.000000 0.000000
vn 0.000000 -1.000000 0.000000
vn 0.000000 1.000000 0.000000
vn 0.000000 1.000000 0.000000
vn 0.000000 1.000000 0.000000
vn 0.000000 1.000000 0.000000
vn 0.000000 1.000000 0.000000
vn 0.000000 1.000000 0.000000
vn 0.000000 1.000000 0.000000
vn 0.000000 1.000000 0.000000
vn 0.000000 1.000000 0.000000
vn 0.000000 1.000000 0.000000
s off
g pPlane5
usemtl initialShadingGroup
f 1/3/1 2/4/2 3/5/3
f 5/9/4 1/1/5 4/8/6
s 1
f 1/3/7 6/10/8 2/4/9
f 7/11/10 6/10/8 1/3/7
s off
f 1/2/11 2/12/12 3/13/13
f 1/2/14 3/13/15 2/14/16
s 2
f 4/7/17 1/6/18 8/15/19
s off
f 1/2/20 2/14/21 9/16/22
s 2
f 1/6/18 9/17/23 8/15/19
