# This file uses centimeters as units for non-parametric coordinates.

mtllib Barrier.mtl
g default
v -1.627707 4.067361 8.083032
v 1.627707 4.067361 8.083032
v -0.768266 9.201345 8.040822
v 0.774449 9.201345 8.040822
v -0.768266 9.201345 -8.040822
v 0.774449 9.201345 -8.040822
v -1.627707 4.067361 -7.998614
v 1.627707 4.067361 -7.998614
v -1.843224 1.719648 -7.995331
v 1.843224 1.719648 -7.995331
v 1.843224 1.719648 8.079747
v -1.843224 1.719648 8.079747
v -0.531601 11.208292 8.040822
v 0.531601 11.208292 8.040822
v 0.531601 11.208292 -8.040822
v -0.531601 11.208292 -8.040822
v -1.843224 1.719648 -4.700931
v -1.627707 4.067361 -4.676990
v -0.768266 9.201345 -4.719198
v -0.531601 11.208292 -4.719198
v 0.531601 11.208292 -4.719198
v 0.774449 9.201345 -4.719198
v 1.627707 4.067361 -4.676990
v 1.843224 1.719648 -4.700931
v -1.843224 1.719648 -3.562356
v -1.627707 4.067361 -3.564239
v -0.768266 9.201345 -3.606448
v -0.531601 11.208292 -3.606448
v 0.531601 11.208292 -3.606448
v 0.774449 9.201345 -3.606448
v 1.627707 4.067361 -3.564239
v 1.843224 1.719648 -3.562356
v -1.843224 1.719648 4.165943
v -1.627707 4.067361 4.137588
v -0.768266 9.201345 4.095379
v -0.531601 11.208292 4.095379
v 0.531601 11.208292 4.095379
v 0.774449 9.201345 4.095379
v 1.627707 4.067361 4.137588
v 1.843224 1.719648 4.165943
v -1.843224 1.719648 3.025838
v -1.627707 4.067361 3.006161
v -0.768266 9.201345 2.963953
v -0.531601 11.208292 2.963953
v 0.531601 11.208292 2.963953
v 0.774449 9.201345 2.963953
v 1.627707 4.067361 3.006161
v 1.843224 1.719648 3.025838
v -3.482250 0.639070 -8.542599
v 3.309539 0.639070 -8.542599
v 3.309539 0.639070 -4.293203
v -3.592885 0.639070 -4.293203
v 3.309539 0.639070 -3.893712
v -3.592885 0.639070 -3.893712
v 3.379170 0.639070 3.488640
v -3.592885 0.639070 3.488640
v 3.379170 0.639070 3.830427
v -3.592885 0.639070 3.830427
v 3.379170 0.639070 8.673666
v -3.592885 0.639070 8.673666
vt 0.375000 0.000000
vt 0.625000 0.000000
vt 0.375000 0.250000
vt 0.625000 0.250000
vt 0.375000 0.500000
vt 0.625000 0.500000
vt 0.375000 0.750000
vt 0.625000 0.750000
vt 0.375000 1.000000
vt 0.625000 1.000000
vt 0.875000 0.000000
vt 0.875000 0.250000
vt 0.125000 0.000000
vt 0.125000 0.250000
vt 0.375000 0.750000
vt 0.625000 0.750000
vt 0.625000 1.000000
vt 0.375000 1.000000
vt 0.375000 0.250000
vt 0.625000 0.250000
vt 0.625000 0.500000
vt 0.375000 0.500000
vt 0.375000 0.801637
vt 0.176637 0.000000
vt 0.375000 0.801637
vt 0.176637 0.250000
vt 0.375000 0.448363
vt 0.375000 0.448363
vt 0.625000 0.448363
vt 0.625000 0.448363
vt 0.823363 0.250000
vt 0.625000 0.801637
vt 0.823363 0.000000
vt 0.625000 0.801637
vt 0.375000 0.818935
vt 0.193935 0.000000
vt 0.375000 0.818935
vt 0.193935 0.250000
vt 0.375000 0.431065
vt 0.375000 0.431065
vt 0.625000 0.431065
vt 0.625000 0.431065
vt 0.806065 0.250000
vt 0.625000 0.818935
vt 0.806065 0.000000
vt 0.625000 0.818935
vt 0.375000 0.938665
vt 0.313665 0.000000
vt 0.375000 0.938665
vt 0.313665 0.250000
vt 0.375000 0.311335
vt 0.375000 0.311335
vt 0.625000 0.311335
vt 0.625000 0.311335
vt 0.686335 0.250000
vt 0.625000 0.938665
vt 0.686335 0.000000
vt 0.625000 0.938665
vt 0.375000 0.921077
vt 0.296077 0.000000
vt 0.375000 0.921077
vt 0.296077 0.250000
vt 0.375000 0.328923
vt 0.375000 0.328923
vt 0.625000 0.328923
vt 0.625000 0.328923
vt 0.703923 0.250000
vt 0.625000 0.921077
vt 0.703923 0.000000
vt 0.625000 0.921077
vt 0.375000 0.750000
vt 0.625000 0.750000
vt 0.625000 0.801637
vt 0.375000 0.801637
vt 0.375000 0.818935
vt 0.625000 0.818935
vt 0.625000 0.921077
vt 0.375000 0.921077
vt 0.375000 0.938665
vt 0.625000 0.938665
vt 0.625000 1.000000
vt 0.375000 1.000000
vn 0.000000 0.003400 0.999994
vn 0.000000 0.003405 0.999994
vn 0.000000 0.007218 0.999974
vn 0.000000 0.007215 0.999974
vn 0.000000 1.000000 0.000000
vn 0.000000 1.000000 0.000000
vn 0.000000 1.000000 0.000000
vn 0.000000 1.000000 0.000000
vn 0.000000 -0.007214 -0.999974
vn 0.000000 -0.007218 -0.999974
vn 0.000000 -0.004806 -0.999988
vn 0.000000 -0.004802 -0.999988
vn 0.000000 -1.000000 0.000000
vn 0.000000 -1.000000 0.000000
vn 0.000000 -1.000000 0.000000
vn 0.000000 -1.000000 0.000000
vn 0.989949 0.141422 0.000000
vn 0.989937 0.141508 0.000000
vn 0.988426 0.151706 0.000000
vn 0.988423 0.151726 0.000000
vn -0.989822 0.142311 0.000000
vn -0.989834 0.142224 0.000000
vn -0.988423 0.151727 0.000000
vn -0.988426 0.151704 0.000000
vn 0.000000 0.287811 -0.957687
vn 0.000000 0.288920 -0.957353
vn 0.910847 0.412744 0.000000
vn 0.881551 0.472089 0.000000
vn 0.000000 0.313833 0.949478
vn 0.000000 0.312533 0.949907
vn -0.854106 0.520081 -0.004385
vn -0.889855 0.456228 -0.003719
vn 0.000000 0.000000 1.000000
vn 0.000000 0.000000 1.000000
vn 0.992759 0.120127 0.000000
vn 0.992758 0.120127 0.000000
vn 0.000000 0.000000 -1.000000
vn 0.000000 0.000000 -1.000000
vn -0.993119 0.117111 0.000000
vn -0.993119 0.117111 0.000000
vn -0.989839 0.142192 0.000000
vn -0.877599 0.479395 0.000000
vn -0.988425 0.151709 0.000000
vn -0.993119 0.117111 0.000000
vn 0.000000 1.000000 0.000000
vn 0.000000 1.000000 0.000000
vn 0.988425 0.151710 0.000000
vn 0.992758 0.120127 0.000000
vn 0.989954 0.141391 0.000000
vn 0.902065 0.431599 -0.001340
vn 0.000000 -1.000000 0.000000
vn 0.000000 -1.000000 0.000000
vn 0.000000 -1.000000 0.000000
vn 0.000000 -1.000000 0.000000
vn -0.989844 0.142155 0.000000
vn -0.876904 0.480665 0.000000
vn -0.988422 0.151730 0.000000
vn -0.993119 0.117111 0.000000
vn 0.000000 1.000000 0.000000
vn 0.000000 1.000000 0.000000
vn 0.988422 0.151729 0.000000
vn 0.992758 0.120127 0.000000
vn 0.989959 0.141354 0.000000
vn 0.901501 0.432774 -0.001345
vn 0.000000 -1.000000 0.000000
vn 0.000000 -1.000000 0.000000
vn 0.000000 -1.000000 0.000000
vn 0.000000 -1.000000 0.000000
vn -0.989829 0.142261 0.000000
vn -0.989825 0.142288 0.000000
vn -0.883254 0.468894 0.000000
vn -0.850395 0.526146 0.000000
vn -0.988425 0.151711 0.000000
vn -0.988421 0.151734 0.000000
vn -0.993119 0.117111 0.000000
vn -0.993119 0.117111 0.000000
vn 0.000000 1.000000 0.000000
vn 0.000000 1.000000 0.000000
vn 0.000000 1.000000 0.000000
vn 0.000000 1.000000 0.000000
vn 0.988421 0.151733 0.000000
vn 0.988425 0.151712 0.000000
vn 0.992758 0.120127 0.000000
vn 0.992758 0.120127 0.000000
vn 0.989944 0.141459 0.000000
vn 0.989940 0.141485 0.000000
vn 0.903435 0.428724 0.000000
vn 0.875659 0.482930 0.000000
vn 0.000000 -1.000000 0.000000
vn 0.000000 -1.000000 0.000000
vn 0.000000 -1.000000 0.000000
vn 0.000000 -1.000000 0.000000
vn 0.000000 -1.000000 0.000000
vn 0.000000 -1.000000 0.000000
vn 0.000000 -1.000000 0.000000
vn 0.000000 -1.000000 0.000000
vn 0.000000 0.451817 -0.892111
vn 0.000000 0.451817 -0.892110
vn 0.593247 0.805020 0.000000
vn 0.593247 0.805020 0.000000
vn 0.000000 0.353029 0.935612
vn 0.000000 0.353029 0.935612
vn 0.000000 0.353029 0.935612
vn 0.000000 0.353029 0.935612
vn -0.537464 0.843250 -0.007882
vn -0.537464 0.843250 -0.007882
vn 0.000000 0.293173 -0.956059
vn 0.000000 0.293173 -0.956059
vn 0.000000 0.293173 -0.956060
vn 0.000000 0.293173 -0.956060
vn 0.584302 0.811531 -0.002912
vn 0.584302 0.811531 -0.002912
vn 0.000000 0.393701 0.919239
vn 0.000000 0.393701 0.919238
vn 0.000000 0.393701 0.919239
vn 0.000000 0.393701 0.919238
vn -0.525460 0.850819 0.000000
vn -0.525460 0.850818 0.000000
vn 0.000000 0.296531 -0.955023
vn 0.000000 0.296531 -0.955023
vn 0.000000 0.296531 -0.955023
vn 0.000000 0.296531 -0.955023
vn 0.575396 0.817875 0.000000
vn 0.575396 0.817875 0.000000
vn 0.000000 0.481670 0.876353
vn 0.000000 0.481670 0.876353
vn -0.525460 0.850819 0.000000
vn -0.525460 0.850819 0.000000
s 1
g barrier_concrete:pCube1
usemtl barrier_concrete:lambert4SG
f 1/1/1 2/2/2 4/4/3 3/3/4
s 2
f 20/28/5 21/29/6 15/21/7 16/22/8
s 3
f 5/5/9 6/6/10 8/8/11 7/7/12
s off
f 49/71/13 50/72/14 51/73/15 52/74/16
s 4
f 23/33/17 8/11/18 6/12/19 22/31/20
s 5
f 7/13/21 18/24/22 19/26/23 5/14/24
s 3
f 7/7/12 8/8/11 10/16/25 9/15/26
s 4
f 8/8/18 23/32/17 24/34/27 10/16/28
s 1
f 2/10/2 1/9/1 12/18/29 11/17/30
s 5
f 18/25/22 7/7/21 9/15/31 17/23/32
s 1
f 3/3/4 4/4/3 14/20/33 13/19/34
s 4
f 22/30/20 6/6/19 15/21/35 21/29/36
s 3
f 6/6/10 5/5/9 16/22/37 15/21/38
s 5
f 5/5/24 19/27/23 20/28/39 16/22/40
f 26/37/41 18/25/22 17/23/32 25/35/42
f 19/26/23 18/24/22 26/36/41 27/38/43
f 20/28/39 19/27/23 27/39/43 28/40/44
s 2
f 28/40/45 29/41/46 21/29/6 20/28/5
s 4
f 30/42/47 22/30/20 21/29/36 29/41/48
f 31/45/49 23/33/17 22/31/20 30/43/47
f 24/34/27 23/32/17 31/44/49 32/46/50
s off
f 17/23/51 24/34/52 32/46/53 25/35/54
s 5
f 42/61/55 26/37/41 25/35/42 41/59/56
f 27/38/43 26/36/41 42/60/55 43/62/57
f 28/40/44 27/39/43 43/63/57 44/64/58
s 2
f 44/64/59 45/65/60 29/41/46 28/40/45
s 4
f 46/66/61 30/42/47 29/41/48 45/65/62
f 47/69/63 31/45/49 30/43/47 46/67/61
f 32/46/50 31/44/49 47/68/63 48/70/64
s off
f 54/75/65 53/76/66 55/77/67 56/78/68
s 5
f 1/9/69 34/49/70 33/47/71 12/18/72
f 35/50/73 34/48/70 1/1/69 3/3/74
f 36/52/75 35/51/73 3/3/74 13/19/76
s 2
f 13/19/77 14/20/78 37/53/79 36/52/80
s 4
f 4/4/81 38/54/82 37/53/83 14/20/84
f 2/2/85 39/57/86 38/55/82 4/4/81
f 40/58/87 39/56/86 2/10/85 11/17/88
s off
f 58/79/89 57/80/90 59/81/91 60/82/92
s 5
f 34/49/70 42/61/55 41/59/56 33/47/71
f 43/62/57 42/60/55 34/48/70 35/50/73
f 44/64/58 43/63/57 35/51/73 36/52/75
s 2
f 36/52/80 37/53/79 45/65/60 44/64/59
s 4
f 38/54/82 46/66/61 45/65/62 37/53/83
f 39/57/86 47/69/63 46/67/61 38/55/82
f 48/70/64 47/68/63 39/56/86 40/58/87
s off
f 41/59/93 48/70/94 40/58/95 33/47/96
s 3
f 9/15/26 10/16/25 50/72/97 49/71/98
s 4
f 10/16/28 24/34/27 51/73/99 50/72/100
s off
f 24/34/101 17/23/102 52/74/103 51/73/104
s 5
f 17/23/32 9/15/31 49/71/105 52/74/106
s off
f 25/35/107 32/46/108 53/76/109 54/75/110
s 4
f 32/46/50 48/70/64 55/77/111 53/76/112
s off
f 48/70/113 41/59/114 56/78/115 55/77/116
s 5
f 41/59/56 25/35/42 54/75/117 56/78/118
s off
f 33/47/119 40/58/120 57/80/121 58/79/122
s 4
f 40/58/87 11/17/88 59/81/123 57/80/124
s 1
f 11/17/30 12/18/29 60/82/125 59/81/126
s 5
f 12/18/72 33/47/71 58/79/127 60/82/128
