# This file uses centimeters as units for non-parametric coordinates.

mtllib barrier_construct.mtl
g default
v -0.514735 3.411506 3.640556
v 0.453597 3.411506 3.640556
v -0.098474 4.449725 3.649414
v 0.068594 4.449725 3.649414
v -0.098474 4.449725 3.114343
v 0.068594 4.449725 3.114343
v -0.491306 3.411506 2.762830
v 0.472230 3.411506 2.762830
v -0.098474 4.444413 2.308154
v 0.068594 4.444413 2.308154
v 0.472230 3.406195 1.956641
v -0.491306 3.406195 1.956641
v -0.098474 4.443661 1.463678
v 0.068594 4.443661 1.463678
v 0.472230 3.405443 1.112166
v -0.491306 3.405443 1.112166
v -0.098474 4.449103 0.610381
v 0.068594 4.449103 0.610381
v 0.472230 3.410885 0.258869
v -0.491306 3.410885 0.258869
v -0.098474 4.449407 -0.224240
v 0.068594 4.449407 -0.224240
v 0.472230 3.411189 -0.575752
v -0.491306 3.411189 -0.575752
v -0.098474 4.456053 -1.031666
v 0.068594 4.456053 -1.031666
v 0.472230 3.417835 -1.383178
v -0.491306 3.417835 -1.383178
v -0.098474 4.437412 -1.913060
v 0.068594 4.437412 -1.913060
v 0.472230 3.399193 -2.264572
v -0.491306 3.399193 -2.264572
v -0.098474 4.424476 -2.692099
v 0.068594 4.424476 -2.692099
v 0.472230 3.386256 -3.043611
v -0.491306 3.386256 -3.043611
v -0.098474 4.419784 -3.629071
v 0.068594 4.419784 -3.629071
v 0.472230 3.381564 -3.648919
v -0.491306 3.381564 -3.648919
v -1.310360 1.377563 -2.169137
v 1.310360 1.377563 -2.169137
v -1.310360 1.923906 -2.169137
v 1.310360 1.923906 -2.169137
v -1.310360 1.923906 -2.433889
v 1.310360 1.923906 -2.433889
v -1.310360 1.377563 -2.433889
v 1.310360 1.377563 -2.433889
v 1.704391 0.005648 -1.997578
v 2.220248 0.015837 -1.997578
v -0.205303 4.987525 -1.997578
v 0.197185 4.992456 -1.997578
v -0.198871 4.991846 -2.649093
v 0.196962 4.990199 -2.649093
v 1.704391 0.005648 -2.649093
v 2.220248 0.015838 -2.649093
v 1.688305 0.004531 2.617877
v 2.210559 0.006148 2.617877
v -0.228471 5.001901 2.617877
v 0.187106 5.003002 2.617877
v -0.227512 4.992585 1.966362
v 0.186883 5.000745 1.966362
v 1.704391 0.015337 1.966362
v 2.207022 0.016791 1.966362
v -1.310360 1.377563 2.492041
v 1.310360 1.377563 2.492041
v -1.310360 1.923906 2.492041
v 1.310360 1.923906 2.492041
v -1.310360 1.923906 2.227288
v 1.310360 1.923906 2.227288
v -1.310360 1.377563 2.227288
v 1.310360 1.377563 2.227288
v -2.247575 0.000680 -1.997578
v -1.731615 0.011404 -1.997578
v -0.192471 4.982458 -1.997578
v 0.192661 4.996676 -1.997578
v -0.194373 4.992108 -2.649093
v 0.191217 4.994926 -2.649093
v -2.247575 0.000680 -2.649093
v -1.731615 0.011404 -2.649093
v -2.236417 0.000680 2.617877
v -1.701078 0.011404 2.617877
v -0.202667 4.982497 2.617877
v 0.192661 4.987025 2.617877
v -0.194373 4.972807 1.966362
v 0.191217 4.985276 1.966362
v -2.217038 0.000680 1.966362
v -1.681993 0.011404 1.966362
vt 0.375000 0.000000
vt 0.625000 0.000000
vt 0.375000 0.250000
vt 0.625000 0.250000
vt 0.375000 0.500000
vt 0.625000 0.500000
vt 0.375000 0.750000
vt 0.625000 0.750000
vt 0.375000 1.000000
vt 0.625000 1.000000
vt 0.875000 0.000000
vt 0.875000 0.250000
vt 0.125000 0.000000
vt 0.125000 0.250000
vt 0.375000 0.500000
vt 0.625000 0.500000
vt 0.625000 0.750000
vt 0.375000 0.750000
vt 0.375000 0.500000
vt 0.625000 0.500000
vt 0.625000 0.750000
vt 0.375000 0.750000
vt 0.375000 0.500000
vt 0.625000 0.500000
vt 0.625000 0.750000
vt 0.375000 0.750000
vt 0.375000 0.500000
vt 0.625000 0.500000
vt 0.625000 0.750000
vt 0.375000 0.750000
vt 0.375000 0.500000
vt 0.625000 0.500000
vt 0.625000 0.750000
vt 0.375000 0.750000
vt 0.375000 0.500000
vt 0.625000 0.500000
vt 0.625000 0.750000
vt 0.375000 0.750000
vt 0.375000 0.500000
vt 0.625000 0.500000
vt 0.625000 0.750000
vt 0.375000 0.750000
vt 0.375000 0.500000
vt 0.625000 0.500000
vt 0.625000 0.750000
vt 0.375000 0.750000
vn 0.000000 -0.008532 0.999964
vn 0.000000 -0.008532 0.999964
vn 0.000000 -0.008532 0.999964
vn 0.000000 -0.008532 0.999964
vn 0.000000 1.000000 0.000000
vn 0.000000 1.000000 0.000000
vn 0.000000 0.999992 -0.003960
vn 0.000000 0.999992 -0.003960
vn 0.000000 0.019114 -0.999817
vn 0.000000 0.019114 -0.999817
vn 0.000000 0.019114 -0.999817
vn 0.000000 0.019114 -0.999817
vn 0.000000 -0.999995 0.003122
vn 0.000000 -0.999995 0.003172
vn 0.000000 -1.000000 0.000000
vn 0.000000 -1.000000 0.000000
vn 0.935482 0.353159 0.012338
vn 0.933170 0.359422 0.003040
vn 0.933905 0.357471 0.005944
vn 0.935482 0.353159 0.012338
vn -0.933458 0.358614 -0.007231
vn -0.930744 0.365347 -0.015435
vn -0.930744 0.365347 -0.015435
vn -0.932626 0.360712 -0.009781
vn 0.000000 0.999993 -0.003673
vn 0.000000 0.999993 -0.003673
vn 0.931910 0.362689 -0.001130
vn 0.931863 0.362808 -0.001537
vn 0.000000 -0.999993 0.003673
vn 0.000000 -0.999993 0.003673
vn -0.935119 0.354330 -0.001501
vn -0.935164 0.354213 -0.001103
vn 0.000000 0.999996 0.002762
vn 0.000000 0.999996 0.002762
vn 0.932182 0.361987 0.001254
vn 0.932125 0.362137 0.000747
vn 0.000000 -0.999996 -0.002763
vn 0.000000 -0.999996 -0.002763
vn -0.935370 0.353671 0.000728
vn -0.935425 0.353523 0.001226
vn 0.000000 0.999994 0.003404
vn 0.000000 0.999994 0.003404
vn 0.932156 0.362056 0.001023
vn 0.932203 0.361932 0.001442
vn 0.000000 -0.999994 -0.003404
vn 0.000000 -0.999994 -0.003404
vn -0.935445 0.353469 0.001409
vn -0.935400 0.353590 0.000998
vn 0.000000 0.999991 0.004232
vn 0.000000 0.999991 0.004232
vn 0.932245 0.361825 0.001806
vn 0.932183 0.361986 0.001260
vn 0.000000 -0.999991 -0.004232
vn 0.000000 -0.999991 -0.004232
vn -0.935426 0.353522 0.001230
vn -0.935485 0.353363 0.001765
vn 0.000000 0.999975 -0.007103
vn 0.000000 0.999975 -0.007103
vn 0.931619 0.363419 -0.003620
vn 0.931867 0.362798 -0.001503
vn 0.000000 -0.999975 0.007103
vn 0.000000 -0.999975 0.007103
vn -0.935123 0.354319 -0.001464
vn -0.934885 0.354932 -0.003539
vn 0.000000 0.999819 -0.019014
vn 0.000000 0.999819 -0.019014
vn 0.931244 0.364335 -0.006757
vn 0.931202 0.364434 -0.007098
vn 0.000000 -0.999819 0.019015
vn 0.000000 -0.999819 0.019015
vn -0.934487 0.355930 -0.006933
vn -0.934527 0.355832 -0.006599
vn 0.000000 0.999947 -0.010272
vn 0.000000 0.999947 -0.010272
vn 0.931676 0.363271 -0.003744
vn 0.931560 0.363559 -0.004517
vn 0.000000 -0.999919 0.012734
vn 0.000000 -0.999919 0.012734
vn -0.934830 0.355069 -0.004413
vn -0.934941 0.354785 -0.003655
vn 0.000000 0.999988 -0.005007
vn 0.000000 0.999988 -0.005007
vn 0.931904 0.362698 -0.002207
vn 0.931904 0.362698 -0.002207
vn 0.000000 -0.999970 0.007751
vn 0.000000 -0.999970 0.007751
vn -0.935159 0.354222 -0.002155
vn -0.935159 0.354222 -0.002155
vn 0.000000 0.000000 1.000000
vn 0.000000 0.000000 1.000000
vn 0.000000 0.000000 1.000000
vn 0.000000 0.000000 1.000000
vn 0.000000 1.000000 0.000000
vn 0.000000 1.000000 0.000000
vn 0.000000 1.000000 0.000000
vn 0.000000 1.000000 0.000000
vn 0.000000 0.000000 -1.000000
vn 0.000000 0.000000 -1.000000
vn 0.000000 0.000000 -1.000000
vn 0.000000 0.000000 -1.000000
vn 0.000000 -1.000000 0.000000
vn 0.000000 -1.000000 0.000000
vn 0.000000 -1.000000 0.000000
vn 0.000000 -1.000000 0.000000
vn 1.000000 0.000000 0.000000
vn 1.000000 0.000000 0.000000
vn 1.000000 0.000000 0.000000
vn 1.000000 0.000000 0.000000
vn -1.000000 0.000000 0.000000
vn -1.000000 0.000000 0.000000
vn -1.000000 0.000000 0.000000
vn -1.000000 0.000000 0.000000
vn 0.000000 0.000000 1.000000
vn 0.000000 0.000000 1.000000
vn 0.000000 0.000000 1.000000
vn 0.000000 0.000000 1.000000
vn -0.004114 0.999990 0.001563
vn -0.004114 0.999990 0.001563
vn -0.004114 0.999990 0.001563
vn -0.004114 0.999990 0.001563
vn 0.000000 0.000000 -1.000000
vn 0.000000 0.000000 -1.000000
vn 0.000000 0.000000 -1.000000
vn 0.000000 0.000000 -1.000000
vn 0.019749 -0.999805 -0.000000
vn 0.019749 -0.999805 -0.000000
vn 0.019749 -0.999805 -0.000000
vn 0.019749 -0.999805 -0.000000
vn 0.926344 0.376678 -0.000811
vn 0.926344 0.376678 -0.000811
vn 0.926344 0.376678 -0.000811
vn 0.926344 0.376678 -0.000811
vn -0.933985 -0.357265 -0.005795
vn -0.933985 -0.357265 -0.005795
vn -0.933985 -0.357265 -0.005795
vn -0.933985 -0.357265 -0.005795
vn 0.000000 0.000000 1.000000
vn 0.000000 0.000000 1.000000
vn 0.000000 0.000000 1.000000
vn 0.000000 0.000000 1.000000
vn -0.011157 0.999898 -0.008887
vn -0.011157 0.999898 -0.008887
vn -0.011157 0.999898 -0.008887
vn -0.011157 0.999898 -0.008887
vn 0.000000 0.000000 -1.000000
vn 0.000000 0.000000 -1.000000
vn 0.000000 0.000000 -1.000000
vn 0.000000 0.000000 -1.000000
vn 0.002995 -0.999861 -0.016429
vn 0.002995 -0.999861 -0.016429
vn 0.002995 -0.999861 -0.016429
vn 0.002995 -0.999861 -0.016429
vn 0.926826 0.375491 -0.000258
vn 0.926826 0.375491 -0.000258
vn 0.926826 0.375491 -0.000258
vn 0.926826 0.375491 -0.000258
vn -0.932886 -0.359951 -0.012615
vn -0.932886 -0.359951 -0.012615
vn -0.932886 -0.359951 -0.012615
vn -0.932886 -0.359951 -0.012615
vn 0.000000 0.000000 1.000000
vn 0.000000 0.000000 1.000000
vn 0.000000 0.000000 1.000000
vn 0.000000 0.000000 1.000000
vn 0.000000 1.000000 0.000000
vn 0.000000 1.000000 0.000000
vn 0.000000 1.000000 0.000000
vn 0.000000 1.000000 0.000000
vn 0.000000 0.000000 -1.000000
vn 0.000000 0.000000 -1.000000
vn 0.000000 0.000000 -1.000000
vn 0.000000 0.000000 -1.000000
vn 0.000000 -1.000000 0.000000
vn 0.000000 -1.000000 0.000000
vn 0.000000 -1.000000 0.000000
vn 0.000000 -1.000000 0.000000
vn 1.000000 0.000000 0.000000
vn 1.000000 0.000000 0.000000
vn 1.000000 0.000000 0.000000
vn 1.000000 0.000000 0.000000
vn -1.000000 0.000000 0.000000
vn -1.000000 0.000000 0.000000
vn -1.000000 0.000000 0.000000
vn -1.000000 0.000000 0.000000
vn 0.000000 0.000000 1.000000
vn 0.000000 0.000000 1.000000
vn 0.000000 0.000000 1.000000
vn 0.000000 0.000000 1.000000
vn -0.022098 0.999737 0.006119
vn -0.022098 0.999737 0.006119
vn -0.022098 0.999737 0.006119
vn -0.022098 0.999737 0.006119
vn 0.000000 0.000000 -1.000000
vn 0.000000 0.000000 -1.000000
vn 0.000000 0.000000 -1.000000
vn 0.000000 0.000000 -1.000000
vn 0.020779 -0.999784 0.000000
vn 0.020779 -0.999784 0.000000
vn 0.020779 -0.999784 0.000000
vn 0.020779 -0.999784 0.000000
vn 0.932939 -0.360035 -0.000550
vn 0.932939 -0.360035 -0.000550
vn 0.932939 -0.360035 -0.000550
vn 0.932939 -0.360035 -0.000550
vn -0.924615 0.380881 0.004170
vn -0.924615 0.380881 0.004170
vn -0.924615 0.380881 0.004170
vn -0.924615 0.380881 0.004170
vn 0.000000 0.000000 1.000000
vn 0.000000 0.000000 1.000000
vn 0.000000 0.000000 1.000000
vn 0.000000 0.000000 1.000000
vn -0.021760 0.999724 -0.008890
vn -0.021760 0.999724 -0.008890
vn -0.021760 0.999724 -0.008890
vn -0.021760 0.999724 -0.008890
vn 0.000000 0.000000 -1.000000
vn 0.000000 0.000000 -1.000000
vn 0.000000 0.000000 -1.000000
vn 0.000000 0.000000 -1.000000
vn 0.020033 -0.999799 0.000591
vn 0.020033 -0.999799 0.000591
vn 0.020033 -0.999799 0.000591
vn 0.020033 -0.999799 0.000591
vn 0.935135 -0.354049 0.013136
vn 0.935135 -0.354049 0.013136
vn 0.935135 -0.354049 0.013136
vn 0.935135 -0.354049 0.013136
vn -0.925823 0.377290 -0.022467
vn -0.925823 0.377290 -0.022467
vn -0.925823 0.377290 -0.022467
vn -0.925823 0.377290 -0.022467
s off
g pCube11
usemtl lambert2SG
f 1/1/1 2/2/2 4/4/3 3/3/4
s 1
f 3/3/5 4/4/6 6/6/7 5/5/8
s off
f 37/43/9 38/44/10 39/45/11 40/46/12
s 2
f 7/7/13 8/8/14 2/10/15 1/9/16
s 3
f 2/2/17 8/11/18 6/12/19 4/4/20
s 4
f 7/13/21 1/1/22 3/3/23 5/14/24
s 1
usemtl blinn1SG
f 5/5/8 6/6/7 10/16/25 9/15/26
s 3
f 6/6/19 8/8/18 11/17/27 10/16/28
s 2
f 8/8/14 7/7/13 12/18/29 11/17/30
s 4
f 7/7/21 5/5/24 9/15/31 12/18/32
s 1
usemtl lambert2SG
f 9/15/26 10/16/25 14/20/33 13/19/34
s 3
f 10/16/28 11/17/27 15/21/35 14/20/36
s 2
f 11/17/30 12/18/29 16/22/37 15/21/38
s 4
f 12/18/32 9/15/31 13/19/39 16/22/40
s 1
usemtl blinn1SG
f 13/19/34 14/20/33 18/24/41 17/23/42
s 3
f 14/20/36 15/21/35 19/25/43 18/24/44
s 2
f 15/21/38 16/22/37 20/26/45 19/25/46
s 4
f 16/22/40 13/19/39 17/23/47 20/26/48
s 1
usemtl lambert2SG
f 17/23/42 18/24/41 22/28/49 21/27/50
s 3
f 18/24/44 19/25/43 23/29/51 22/28/52
s 2
f 19/25/46 20/26/45 24/30/53 23/29/54
s 4
f 20/26/48 17/23/47 21/27/55 24/30/56
s 1
usemtl blinn1SG
f 21/27/50 22/28/49 26/32/57 25/31/58
s 3
f 22/28/52 23/29/51 27/33/59 26/32/60
s 2
f 23/29/54 24/30/53 28/34/61 27/33/62
s 4
f 24/30/56 21/27/55 25/31/63 28/34/64
s 1
usemtl lambert2SG
f 25/31/58 26/32/57 30/36/65 29/35/66
s 3
f 26/32/60 27/33/59 31/37/67 30/36/68
s 2
f 27/33/62 28/34/61 32/38/69 31/37/70
s 4
f 28/34/64 25/31/63 29/35/71 32/38/72
s 1
usemtl blinn1SG
f 29/35/66 30/36/65 34/40/73 33/39/74
s 3
f 30/36/68 31/37/67 35/41/75 34/40/76
s 2
f 31/37/70 32/38/69 36/42/77 35/41/78
s 4
f 32/38/72 29/35/71 33/39/79 36/42/80
s 1
usemtl lambert2SG
f 33/39/74 34/40/73 38/44/81 37/43/82
s 3
f 34/40/76 35/41/75 39/45/83 38/44/84
s 2
f 35/41/78 36/42/77 40/46/85 39/45/86
s 4
f 36/42/80 33/39/79 37/43/87 40/46/88
s off
f 41//89 42//90 44//91 43//92
f 43//93 44//94 46//95 45//96
f 45//97 46//98 48//99 47//100
f 47//101 48//102 42//103 41//104
f 42//105 48//106 46//107 44//108
f 47//109 41//110 43//111 45//112
f 49//113 50//114 52//115 51//116
f 51//117 52//118 54//119 53//120
f 53//121 54//122 56//123 55//124
f 55//125 56//126 50//127 49//128
f 50//129 56//130 54//131 52//132
f 55//133 49//134 51//135 53//136
f 57//137 58//138 60//139 59//140
f 59//141 60//142 62//143 61//144
f 61//145 62//146 64//147 63//148
f 63//149 64//150 58//151 57//152
f 58//153 64//154 62//155 60//156
f 63//157 57//158 59//159 61//160
f 65//161 66//162 68//163 67//164
f 67//165 68//166 70//167 69//168
f 69//169 70//170 72//171 71//172
f 71//173 72//174 66//175 65//176
f 66//177 72//178 70//179 68//180
f 71//181 65//182 67//183 69//184
f 73//185 74//186 76//187 75//188
f 75//189 76//190 78//191 77//192
f 77//193 78//194 80//195 79//196
f 79//197 80//198 74//199 73//200
f 74//201 80//202 78//203 76//204
f 79//205 73//206 75//207 77//208
f 81//209 82//210 84//211 83//212
f 83//213 84//214 86//215 85//216
f 85//217 86//218 88//219 87//220
f 87//221 88//222 82//223 81//224
f 82//225 88//226 86//227 84//228
f 87//229 81//230 83//231 85//232
