# This file uses centimeters as units for non-parametric coordinates.

mtllib hedge.mtl
g default
v -1.123119 0.534181 1.501425
v 0.949477 0.534181 1.501425
v -1.123119 2.633720 1.501425
v 0.949477 2.633720 1.501425
v -1.123119 2.633720 -1.501425
v 0.949477 2.633720 -1.501425
v -1.123119 0.534181 -1.501425
v 0.949477 0.534181 -1.501425
v -1.123119 0.534181 1.501425
v 0.949477 0.534181 1.501425
v 0.949477 2.633720 1.501425
v -1.123119 2.633720 1.501425
vt 0.001969 -1.982455
vt 0.998031 -1.982455
vt 0.001969 -0.986393
vt 0.998031 -0.986393
vt 0.001969 0.009669
vt 0.998031 0.991865
vt 0.001969 1.005731
vt 0.998031 1.005731
vt 0.001969 2.001792
vt 0.998031 2.001792
vt 1.994093 -1.982455
vt 1.994093 -0.986393
vt -0.994093 -1.982455
vt -0.994093 -0.986393
vt 0.001969 -1.982455
vt 0.998031 -1.982455
vt 0.998031 -0.986393
vt 0.001969 -0.986393
vt 0.998031 -0.004197
vt 0.998031 0.009669
vt 0.001969 -0.004197
vt 0.001969 0.991865
vt 0.001969 1.005731
vt 0.998031 1.005731
vn 0.000000 0.000000 1.000000
vn 0.000000 0.000000 1.000000
vn 0.000000 0.000000 1.000000
vn 0.000000 0.000000 1.000000
vn 0.000000 1.000000 0.000000
vn 0.000000 1.000000 0.000000
vn 0.000000 1.000000 0.000000
vn 0.000000 1.000000 0.000000
vn 0.000000 0.000000 -1.000000
vn 0.000000 0.000000 -1.000000
vn 0.000000 0.000000 -1.000000
vn 0.000000 0.000000 -1.000000
vn 0.000000 -1.000000 0.000000
vn 0.000000 -1.000000 0.000000
vn 0.000000 -1.000000 0.000000
vn 0.000000 -1.000000 0.000000
vn 1.000000 0.000000 0.000000
vn 1.000000 0.000000 0.000000
vn 1.000000 0.000000 0.000000
vn 1.000000 0.000000 0.000000
vn -1.000000 0.000000 0.000000
vn -1.000000 0.000000 0.000000
vn -1.000000 0.000000 0.000000
vn -1.000000 0.000000 0.000000
vn 0.000000 0.000000 -0.000000
vn 0.000000 0.000000 -1.000000
vn 0.000000 0.000000 -0.000000
vn 0.000000 0.000000 -0.000000
vn 0.000000 0.000000 -1.000000
vn 0.000000 0.000000 -1.000000
vn 0.000000 0.000000 -1.000000
vn 0.000000 0.000000 -1.000000
vn 0.000000 0.000000 -0.000000
vn 0.000000 0.000000 -0.000000
vn 0.000000 0.000000 -0.000000
vn 0.000000 0.000000 -0.000000
vn 0.000000 0.000000 0.000000
vn 0.000000 0.000000 0.000000
vn 0.000000 0.000000 0.000000
vn 0.000000 0.000000 0.000000
s off
g pCube1
usemtl lambert2SG
f 9/15/1 10/16/2 11/17/3 12/18/4
f 3/21/5 4/19/6 6/6/7 5/22/8
f 5/5/9 6/20/10 8/8/11 7/23/12
f 7/7/13 8/24/14 2/10/15 1/9/16
f 2/2/17 8/11/18 6/12/19 4/4/20
f 7/13/21 1/1/22 3/3/23 5/14/24
f 1/1/25 2/2/26 10/16/27 9/15/28
f 2/2/29 4/4/30 11/17/31 10/16/32
f 4/4/33 3/3/34 12/18/35 11/17/36
f 3/3/37 1/1/38 9/15/39 12/18/40
