# This file uses centimeters as units for non-parametric coordinates.

mtllib street_sign.mtl
g default
v 4.441848 -1.824847 -0.093985
v 4.398648 -1.824847 -0.178770
v 4.331363 -1.824847 -0.246056
v 4.246578 -1.824847 -0.289256
v 4.152593 -1.824847 -0.304141
v 4.058608 -1.824847 -0.289256
v 3.973823 -1.824847 -0.246056
v 3.906537 -1.824847 -0.178770
v 3.863337 -1.824847 -0.093985
v 3.848451 -1.824847 0.000000
v 3.863337 -1.824847 0.093985
v 3.906537 -1.824847 0.178770
v 3.973823 -1.824847 0.246055
v 4.058608 -1.824847 0.289256
v 4.152593 -1.824847 0.304141
v 4.246577 -1.824847 0.289256
v 4.331362 -1.824847 0.246055
v 4.398648 -1.824847 0.178770
v 4.441848 -1.824847 0.093985
v 4.456734 -1.824847 0.000000
v 4.441848 10.939902 -0.093985
v 4.398648 10.939902 -0.178770
v 4.331363 10.939902 -0.246056
v 4.246578 10.939902 -0.289256
v 4.152593 10.939902 -0.304141
v 4.058608 10.939902 -0.289256
v 3.973823 10.939902 -0.246056
v 3.906537 10.939902 -0.178770
v 3.863337 10.939902 -0.093985
v 3.848451 10.939902 0.000000
v 3.863337 10.939902 0.093985
v 3.906537 10.939902 0.178770
v 3.973823 10.939902 0.246055
v 4.058608 10.939902 0.289256
v 4.152593 10.939902 0.304141
v 4.246577 10.939902 0.289256
v 4.331362 10.939902 0.246055
v 4.398648 10.939902 0.178770
v 4.441848 10.939902 0.093985
v 4.456734 10.939902 0.000000
v 4.152593 -1.824847 0.000000
v 4.152593 10.939902 0.000000
v 3.799804 8.545216 3.147041
v 4.072268 8.545216 3.147041
v 3.799804 9.545216 3.147041
v 4.072268 9.545216 3.147041
v 3.799804 9.545216 -3.147041
v 4.072268 9.545216 -3.147041
v 3.799804 8.545216 -3.147041
v 4.072268 8.545216 -3.147041
v 3.802598 8.555470 3.208785
v 4.069474 8.555470 3.208785
v 4.069474 9.534962 3.208785
v 3.802598 9.534962 3.208785
v 4.069474 9.534962 -3.208785
v 3.802598 9.534962 -3.208785
v 4.069474 8.555470 -3.208785
v 3.802598 8.555470 -3.208785
v 0.908452 9.857736 0.110538
v 0.908452 9.857736 0.383001
v 0.908452 10.857736 0.110538
v 0.908452 10.857736 0.383001
v 7.371318 10.857736 0.110538
v 7.371318 10.857736 0.383001
v 7.371318 9.857736 0.110538
v 7.371318 9.857736 0.383001
v 0.844354 9.794351 0.107835
v 0.844354 9.794351 0.385704
v 0.844354 10.921121 0.385704
v 0.844354 10.921121 0.107835
v 7.435415 10.921121 0.385704
v 7.435415 10.921121 0.107835
v 7.435415 9.794351 0.385704
v 7.435415 9.794351 0.107835
vt 0.648603 0.107966
vt 0.626409 0.064408
vt 0.591842 0.029841
vt 0.548284 0.007647
vt 0.500000 -0.000000
vt 0.451716 0.007647
vt 0.408159 0.029841
vt 0.373591 0.064409
vt 0.351397 0.107966
vt 0.343750 0.156250
vt 0.351397 0.204534
vt 0.373591 0.248091
vt 0.408159 0.282659
vt 0.451716 0.304853
vt 0.500000 0.312500
vt 0.548284 0.304853
vt 0.591841 0.282659
vt 0.626409 0.248091
vt 0.648603 0.204534
vt 0.656250 0.156250
vt 0.375000 0.312500
vt 0.387500 0.312500
vt 0.400000 0.312500
vt 0.412500 0.312500
vt 0.425000 0.312500
vt 0.437500 0.312500
vt 0.450000 0.312500
vt 0.462500 0.312500
vt 0.475000 0.312500
vt 0.487500 0.312500
vt 0.500000 0.312500
vt 0.512500 0.312500
vt 0.525000 0.312500
vt 0.537500 0.312500
vt 0.550000 0.312500
vt 0.562500 0.312500
vt 0.575000 0.312500
vt 0.587500 0.312500
vt 0.600000 0.312500
vt 0.612500 0.312500
vt 0.625000 0.312500
vt 0.375000 0.688440
vt 0.387500 0.688440
vt 0.400000 0.688440
vt 0.412500 0.688440
vt 0.425000 0.688440
vt 0.437500 0.688440
vt 0.450000 0.688440
vt 0.462500 0.688440
vt 0.475000 0.688440
vt 0.487500 0.688440
vt 0.500000 0.688440
vt 0.512500 0.688440
vt 0.525000 0.688440
vt 0.537500 0.688440
vt 0.550000 0.688440
vt 0.562500 0.688440
vt 0.575000 0.688440
vt 0.587500 0.688440
vt 0.600000 0.688440
vt 0.612500 0.688440
vt 0.625000 0.688440
vt 0.648603 0.795466
vt 0.626409 0.751908
vt 0.591842 0.717341
vt 0.548284 0.695147
vt 0.500000 0.687500
vt 0.451716 0.695147
vt 0.408159 0.717341
vt 0.373591 0.751909
vt 0.351397 0.795466
vt 0.343750 0.843750
vt 0.351397 0.892034
vt 0.373591 0.935591
vt 0.408159 0.970159
vt 0.451716 0.992353
vt 0.500000 1.000000
vt 0.548284 0.992353
vt 0.591841 0.970159
vt 0.626409 0.935591
vt 0.648603 0.892034
vt 0.656250 0.843750
vt 0.500000 0.150000
vt 0.500000 0.837500
vn 0.951057 0.000000 -0.309015
vn 0.809018 0.000000 -0.587784
vn 0.809018 0.000000 -0.587784
vn 0.951057 0.000000 -0.309015
vn 0.587786 0.000000 -0.809017
vn 0.587786 0.000000 -0.809017
vn 0.309017 0.000000 -0.951057
vn 0.309017 0.000000 -0.951057
vn -0.000000 0.000000 -1.000000
vn -0.000000 0.000000 -1.000000
vn -0.309017 0.000000 -0.951056
vn -0.309017 0.000000 -0.951056
vn -0.587786 0.000000 -0.809017
vn -0.587786 0.000000 -0.809017
vn -0.809017 0.000000 -0.587785
vn -0.809017 0.000000 -0.587785
vn -0.951057 0.000000 -0.309016
vn -0.951057 0.000000 -0.309016
vn -1.000000 0.000000 0.000000
vn -1.000000 0.000000 0.000000
vn -0.951057 0.000000 0.309016
vn -0.951057 0.000000 0.309016
vn -0.809017 0.000000 0.587785
vn -0.809017 0.000000 0.587785
vn -0.587784 0.000000 0.809018
vn -0.587784 0.000000 0.809018
vn -0.309017 0.000000 0.951057
vn -0.309017 0.000000 0.951057
vn 0.000000 0.000000 1.000000
vn 0.000000 0.000000 1.000000
vn 0.309017 0.000000 0.951057
vn 0.309017 0.000000 0.951057
vn 0.587784 0.000000 0.809018
vn 0.587784 0.000000 0.809018
vn 0.809016 0.000000 0.587786
vn 0.809016 0.000000 0.587786
vn 0.951057 0.000000 0.309015
vn 0.951057 0.000000 0.309015
vn 1.000000 0.000000 0.000000
vn 1.000000 0.000000 0.000000
vn 0.000000 -1.000000 -0.000001
vn 0.000000 -1.000000 -0.000001
vn 0.000000 -1.000000 -0.000000
vn 0.000000 -1.000000 -0.000001
vn 0.000000 -1.000000 -0.000001
vn 0.000000 -1.000000 0.000000
vn 0.000000 -1.000000 0.000000
vn 0.000000 -1.000000 0.000000
vn 0.000000 -1.000000 0.000000
vn 0.000000 -1.000000 0.000000
vn 0.000000 -1.000000 0.000000
vn 0.000000 -1.000000 0.000001
vn 0.000000 -1.000000 0.000001
vn 0.000000 -1.000000 0.000000
vn 0.000000 -1.000000 0.000000
vn 0.000000 -1.000000 0.000000
vn 0.000000 -1.000000 -0.000001
vn 0.000000 -1.000000 -0.000001
vn 0.000000 -1.000000 0.000000
vn 0.000000 -1.000000 0.000000
vn 0.000000 -1.000000 0.000000
vn 0.000000 1.000000 0.000000
vn 0.000000 1.000000 0.000008
vn 0.000000 1.000000 0.000000
vn 0.000000 1.000000 0.000008
vn 0.000000 1.000000 0.000000
vn 0.000000 1.000000 0.000000
vn 0.000000 1.000000 0.000000
vn 0.000000 1.000000 0.000004
vn 0.000000 1.000000 0.000004
vn 0.000000 1.000000 0.000000
vn 0.000000 1.000000 0.000000
vn 0.000000 1.000000 0.000000
vn 0.000000 1.000000 -0.000008
vn 0.000000 1.000000 -0.000008
vn 0.000000 1.000000 0.000000
vn 0.000000 1.000000 0.000000
vn 0.000000 1.000000 0.000000
vn 0.000000 1.000000 0.000000
vn 0.000000 1.000000 0.000000
vn 0.000000 1.000000 0.000000
vn 0.000000 1.000000 0.000000
vn 0.000000 0.000000 1.000000
vn 0.000000 0.000000 1.000000
vn 0.000000 0.000000 1.000000
vn 0.000000 0.000000 1.000000
vn 0.000000 1.000000 0.000000
vn 0.000000 1.000000 0.000000
vn 0.000000 1.000000 0.000000
vn 0.000000 1.000000 0.000000
vn 0.000000 0.000000 -1.000000
vn 0.000000 0.000000 -1.000000
vn 0.000000 0.000000 -1.000000
vn 0.000000 0.000000 -1.000000
vn 0.000000 -1.000000 0.000000
vn 0.000000 -1.000000 0.000000
vn 0.000000 -1.000000 0.000000
vn 0.000000 -1.000000 0.000000
vn 1.000000 0.000000 0.000000
vn 1.000000 0.000000 0.000000
vn 1.000000 0.000000 0.000000
vn 1.000000 0.000000 0.000000
vn -1.000000 0.000000 0.000000
vn -1.000000 0.000000 0.000000
vn -1.000000 0.000000 0.000000
vn -1.000000 0.000000 0.000000
vn 0.998978 0.000000 0.045202
vn 0.998978 0.000000 0.045202
vn 0.998978 0.000000 0.045202
vn 0.998978 0.000000 0.045202
vn -0.998978 0.000000 0.045206
vn -0.998978 0.000000 0.045206
vn -0.998978 0.000000 0.045206
vn -0.998978 0.000000 0.045206
vn -0.964832 0.262866 0.000000
vn -0.964832 0.262866 0.000000
vn -0.964833 0.262866 0.000000
vn -0.964833 0.262866 0.000000
vn 0.964824 0.262897 0.000000
vn 0.964824 0.262897 0.000000
vn 0.964824 0.262897 0.000000
vn 0.964824 0.262897 0.000000
vn 0.998978 0.000000 -0.045202
vn 0.998978 0.000000 -0.045202
vn 0.998978 0.000000 -0.045202
vn 0.998978 0.000000 -0.045202
vn -0.998978 0.000000 -0.045206
vn -0.998978 0.000000 -0.045206
vn -0.998978 0.000000 -0.045206
vn -0.998978 0.000000 -0.045206
vn -0.964832 -0.262866 0.000000
vn -0.964832 -0.262866 0.000000
vn -0.964833 -0.262866 0.000000
vn -0.964833 -0.262866 0.000000
vn 0.964824 -0.262897 0.000000
vn 0.964824 -0.262897 0.000000
vn 0.964824 -0.262897 0.000000
vn 0.964824 -0.262897 0.000000
vn -1.000000 0.000000 0.000000
vn -1.000000 0.000000 0.000000
vn -1.000000 0.000000 0.000000
vn -1.000000 0.000000 0.000000
vn 0.000000 1.000000 0.000000
vn 0.000000 1.000000 0.000000
vn 0.000000 1.000000 0.000000
vn 0.000000 1.000000 0.000000
vn 1.000000 0.000000 0.000000
vn 1.000000 0.000000 0.000000
vn 1.000000 0.000000 0.000000
vn 1.000000 0.000000 0.000000
vn 0.000000 -1.000000 0.000000
vn 0.000000 -1.000000 0.000000
vn 0.000000 -1.000000 0.000000
vn 0.000000 -1.000000 0.000000
vn 0.000000 0.000000 1.000000
vn 0.000000 0.000000 1.000000
vn 0.000000 0.000000 1.000000
vn 0.000000 0.000000 1.000000
vn 0.000000 0.000000 -1.000000
vn 0.000000 0.000000 -1.000000
vn 0.000000 0.000000 -1.000000
vn 0.000000 0.000000 -1.000000
vn 0.042120 0.000000 0.999113
vn 0.042120 0.000000 0.999113
vn 0.042120 0.000000 0.999113
vn 0.042120 0.000000 0.999113
vn 0.042121 0.000000 -0.999113
vn 0.042121 0.000000 -0.999113
vn 0.042121 0.000000 -0.999113
vn 0.042121 0.000000 -0.999113
vn 0.000000 -0.042593 0.999093
vn 0.000000 -0.042593 0.999093
vn 0.000000 -0.042593 0.999093
vn 0.000000 -0.042593 0.999093
vn 0.000000 -0.042593 -0.999093
vn 0.000000 -0.042593 -0.999093
vn 0.000000 -0.042593 -0.999093
vn 0.000000 -0.042593 -0.999093
vn -0.042121 0.000000 0.999113
vn -0.042121 0.000000 0.999113
vn -0.042121 0.000000 0.999113
vn -0.042121 0.000000 0.999113
vn -0.042121 0.000000 -0.999113
vn -0.042121 0.000000 -0.999113
vn -0.042121 0.000000 -0.999113
vn -0.042121 0.000000 -0.999113
vn 0.000000 0.042594 0.999092
vn 0.000000 0.042594 0.999093
vn 0.000000 0.042594 0.999092
vn 0.000000 0.042594 0.999092
vn 0.000000 0.042595 -0.999093
vn 0.000000 0.042595 -0.999092
vn 0.000000 0.042595 -0.999092
vn 0.000000 0.042595 -0.999092
s 1
g pCylinder2
usemtl lambert2SG
f 1/21/1 2/22/2 22/43/3 21/42/4
f 2/22/2 3/23/5 23/44/6 22/43/3
f 3/23/5 4/24/7 24/45/8 23/44/6
f 4/24/7 5/25/9 25/46/10 24/45/8
f 5/25/9 6/26/11 26/47/12 25/46/10
f 6/26/11 7/27/13 27/48/14 26/47/12
f 7/27/13 8/28/15 28/49/16 27/48/14
f 8/28/15 9/29/17 29/50/18 28/49/16
f 9/29/17 10/30/19 30/51/20 29/50/18
f 10/30/19 11/31/21 31/52/22 30/51/20
f 11/31/21 12/32/23 32/53/24 31/52/22
f 12/32/23 13/33/25 33/54/26 32/53/24
f 13/33/25 14/34/27 34/55/28 33/54/26
f 14/34/27 15/35/29 35/56/30 34/55/28
f 15/35/29 16/36/31 36/57/32 35/56/30
f 16/36/31 17/37/33 37/58/34 36/57/32
f 17/37/33 18/38/35 38/59/36 37/58/34
f 18/38/35 19/39/37 39/60/38 38/59/36
f 19/39/37 20/40/39 40/61/40 39/60/38
f 20/40/39 1/41/1 21/62/4 40/61/40
s 2
f 2/2/41 1/1/42 41/83/43
f 3/3/44 2/2/41 41/83/43
f 4/4/45 3/3/44 41/83/43
f 5/5/46 4/4/45 41/83/43
f 6/6/47 5/5/46 41/83/43
f 7/7/48 6/6/47 41/83/43
f 8/8/49 7/7/48 41/83/43
f 9/9/50 8/8/49 41/83/43
f 10/10/51 9/9/50 41/83/43
f 11/11/52 10/10/51 41/83/43
f 12/12/53 11/11/52 41/83/43
f 13/13/54 12/12/53 41/83/43
f 14/14/55 13/13/54 41/83/43
f 15/15/56 14/14/55 41/83/43
f 16/16/57 15/15/56 41/83/43
f 17/17/58 16/16/57 41/83/43
f 18/18/59 17/17/58 41/83/43
f 19/19/60 18/18/59 41/83/43
f 20/20/61 19/19/60 41/83/43
f 1/1/42 20/20/61 41/83/43
s 3
f 21/81/62 22/80/63 42/84/64
f 22/80/63 23/79/65 42/84/64
f 23/79/65 24/78/66 42/84/64
f 24/78/66 25/77/67 42/84/64
f 25/77/67 26/76/68 42/84/64
f 26/76/68 27/75/69 42/84/64
f 27/75/69 28/74/70 42/84/64
f 28/74/70 29/73/71 42/84/64
f 29/73/71 30/72/72 42/84/64
f 30/72/72 31/71/73 42/84/64
f 31/71/73 32/70/74 42/84/64
f 32/70/74 33/69/75 42/84/64
f 33/69/75 34/68/76 42/84/64
f 34/68/76 35/67/77 42/84/64
f 35/67/77 36/66/78 42/84/64
f 36/66/78 37/65/79 42/84/64
f 37/65/79 38/64/80 42/84/64
f 38/64/80 39/63/81 42/84/64
f 39/63/81 40/82/82 42/84/64
f 40/82/82 21/81/62 42/84/64
s off
usemtl blinn1SG
f 51//83 52//84 53//85 54//86
f 54//87 53//88 55//89 56//90
f 56//91 55//92 57//93 58//94
f 58//95 57//96 52//97 51//98
usemtl lambert2SG
f 44//99 50//100 48//101 46//102
usemtl blinn2SG
f 49//103 43//104 45//105 47//106
usemtl blinn1SG
f 44//107 46//108 53//109 52//110
f 45//111 43//112 51//113 54//114
f 46//115 48//116 55//117 53//118
f 47//119 45//120 54//121 56//122
f 48//123 50//124 57//125 55//126
f 49//127 47//128 56//129 58//130
f 50//131 44//132 52//133 57//134
f 43//135 49//136 58//137 51//138
f 67//139 68//140 69//141 70//142
f 70//143 69//144 71//145 72//146
f 72//147 71//148 73//149 74//150
f 74//151 73//152 68//153 67//154
usemtl blinn2SG
f 60//155 66//156 64//157 62//158
usemtl lambert2SG
f 65//159 59//160 61//161 63//162
usemtl blinn1SG
f 60//163 62//164 69//165 68//166
f 61//167 59//168 67//169 70//170
f 62//171 64//172 71//173 69//174
f 63//175 61//176 70//177 72//178
f 64//179 66//180 73//181 71//182
f 65//183 63//184 72//185 74//186
f 66//187 60//188 68//189 73//190
f 59//191 65//192 74//193 67//194
